<svg width="41" height="41" viewBox="0 0 41 41" fill="none" xmlns="http://www.w3.org/2000/svg">
<path d="M9.32734 31.5871V26.5987C9.32734 24.9417 10.6257 23.4554 12.4707 23.4554C14.1278 23.4554 15.614 24.7537 15.614 26.5987V31.3992C15.614 34.7304 12.8465 37.4979 9.51525 37.4979C6.184 37.4979 3.4165 34.7133 3.4165 31.3992V20.8758C3.22859 11.275 10.8136 3.50208 20.4144 3.50208C30.0153 3.50208 37.5832 11.275 37.5832 20.6879V31.2113C37.5832 34.5425 34.8157 37.31 31.4844 37.31C28.1532 37.31 25.3857 34.5425 25.3857 31.2113V26.4108C25.3857 24.7537 26.684 23.2675 28.529 23.2675C30.1861 23.2675 31.6723 24.5658 31.6723 26.4108V31.5871" stroke="white" stroke-width="2.5" stroke-linecap="round" stroke-linejoin="round"/>
</svg>
