<svg width="15" height="10" viewBox="0 0 15 10" fill="none" xmlns="http://www.w3.org/2000/svg">
<path d="M6.5 2.5H14.5M6.5 2.5C6.5 3.60457 5.60457 4.5 4.5 4.5C3.39543 4.5 2.5 3.60457 2.5 2.5M6.5 2.5C6.5 1.39543 5.60457 0.5 4.5 0.5C3.39543 0.5 2.5 1.39543 2.5 2.5M0.5 2.5H2.5M11.5 7.5H14.5M11.5 7.5C11.5 8.60457 10.6046 9.5 9.5 9.5C8.39543 9.5 7.5 8.60457 7.5 7.5M11.5 7.5C11.5 6.39543 10.6046 5.5 9.5 5.5C8.39543 5.5 7.5 6.39543 7.5 7.5M0.5 7.5H7.5" stroke="black" stroke-linecap="round" stroke-linejoin="round"/>
</svg>
